<?xml version="1.0" standalone="no"?>
<!DOCTYPE svg PUBLIC "-//W3C//DTD SVG 20010904//EN"
 "http://www.w3.org/TR/2001/REC-SVG-20010904/DTD/svg10.dtd">
<svg version="1.0" xmlns="http://www.w3.org/2000/svg"
 width="1080.000000pt" height="1080.000000pt" viewBox="0 0 1080.000000 1080.000000"
 preserveAspectRatio="xMidYMid meet">

<g transform="translate(0.000000,1080.000000) scale(0.100000,-0.100000)"
fill="#000000" stroke="none">
<path d="M5330 8663 c-51 -15 -71 -32 -303 -262 -273 -271 -297 -303 -297
-400 0 -123 -86 -29 1180 -1296 1130 -1132 1159 -1161 1174 -1214 21 -72 20
-110 -4 -173 -18 -48 -124 -157 -1179 -1213 -1064 -1065 -1160 -1164 -1175
-1209 -9 -27 -16 -70 -16 -95 0 -90 28 -127 301 -397 231 -229 259 -253 308
-269 62 -20 131 -16 185 12 41 21 3116 3089 3148 3141 13 21 22 57 26 98 10
129 137 -8 -1572 1702 -1099 1100 -1553 1548 -1582 1562 -60 28 -129 32 -194
13z"/>
</g>
</svg>
